<svg width="9" height="10" viewBox="0 0 9 10" fill="none" xmlns="http://www.w3.org/2000/svg">
<path d="M6.984 9.12L3.144 4.212C3.04 4.076 2.932 3.932 2.82 3.78C2.708 3.628 2.596 3.472 2.484 3.312H2.472L2.496 7.032C2.496 7.248 2.492 7.456 2.484 7.656C2.476 7.856 2.464 8.008 2.448 8.112C2.576 8.096 2.736 8.088 2.928 8.088C3.128 8.08 3.268 8.076 3.348 8.076V9H0.612V8.208C0.796 8.2 0.948 8.176 1.068 8.136C1.196 8.096 1.292 8.004 1.356 7.86C1.428 7.716 1.464 7.484 1.464 7.164L1.44 2.568C1.44 2.352 1.444 2.144 1.452 1.944C1.46 1.744 1.472 1.592 1.488 1.488C1.36 1.496 1.196 1.504 0.996 1.512C0.804 1.512 0.664 1.516 0.576 1.524V0.599999H2.46L6.132 5.232C6.332 5.488 6.496 5.708 6.624 5.892C6.76 6.076 6.876 6.236 6.972 6.372H6.984V2.568C6.984 2.352 6.988 2.144 6.996 1.944C7.004 1.744 7.012 1.592 7.02 1.488C6.892 1.496 6.732 1.504 6.54 1.512C6.348 1.512 6.208 1.516 6.12 1.524V0.599999H8.856V1.392C8.68 1.4 8.528 1.424 8.4 1.464C8.272 1.504 8.172 1.596 8.1 1.74C8.036 1.876 8.004 2.108 8.004 2.436V9.12H6.984Z" fill="#0A68FF"/>
</svg>
