<?xml version="1.0" standalone="no"?>
<!DOCTYPE svg PUBLIC "-//W3C//DTD SVG 20010904//EN"
 "http://www.w3.org/TR/2001/REC-SVG-20010904/DTD/svg10.dtd">
<svg version="1.0" xmlns="http://www.w3.org/2000/svg"
 width="640.000000pt" height="640.000000pt" viewBox="0 0 640.000000 640.000000"
 preserveAspectRatio="xMidYMid meet">
<metadata>
Created by potrace 1.14, written by Peter Selinger 2001-2017
</metadata>
<g transform="translate(0.000000,640.000000) scale(0.100000,-0.100000)"
fill="#000000" stroke="none">
<path d="M690 5930 c-1 -95 -1 -491 0 -501 0 -4 15 -5 33 -3 17 2 120 6 227 9
107 3 223 7 256 9 l62 4 -3 -42 c-20 -259 -21 -421 -14 -2856 3 -892 1 -945
-25 -1068 -17 -80 -61 -166 -110 -217 -61 -63 -164 -99 -316 -111 -36 -3 -70
-7 -77 -9 -13 -4 -17 -492 -3 -500 6 -4 51 -6 90 -5 8 1 63 0 123 -1 59 -1
110 1 113 3 3 3 21 2 40 -2 20 -5 34 -4 34 2 0 5 5 6 10 3 6 -4 52 -6 103 -6
50 1 101 1 112 1 11 0 31 0 45 1 14 0 32 0 40 0 8 -1 26 -1 40 0 14 0 32 0 40
0 8 -1 26 -1 40 0 14 0 32 0 40 0 8 -1 26 -1 40 0 14 0 32 0 40 0 8 -1 26 -1
40 0 14 0 32 0 40 0 8 -1 26 -1 40 0 14 0 31 0 38 0 14 -1 27 -1 112 -2 36 0
98 -1 138 -2 39 -1 72 1 72 4 0 3 20 3 45 -1 25 -4 48 -3 51 2 3 4 10 6 16 2
12 -8 188 -7 196 0 3 3 6 137 6 297 l1 291 -225 -6 c-124 -4 -253 -9 -288 -12
l-63 -5 5 53 c22 219 24 572 14 2205 -3 481 -2 810 4 807 5 -3 19 -23 33 -43
13 -21 29 -44 37 -52 7 -8 22 -27 32 -44 18 -29 315 -429 348 -470 9 -11 44
-55 77 -97 34 -43 87 -111 119 -151 31 -40 67 -86 79 -103 12 -16 31 -40 42
-54 22 -28 180 -228 217 -275 13 -16 76 -97 139 -180 64 -82 126 -162 138
-177 12 -14 65 -81 117 -148 52 -67 173 -221 269 -343 209 -267 201 -257 298
-382 42 -55 81 -102 85 -103 4 -2 8 -10 8 -18 0 -8 4 -14 8 -14 5 0 22 -19 39
-43 17 -23 39 -52 49 -64 11 -11 26 -31 34 -43 8 -12 27 -35 43 -53 15 -17 27
-34 27 -37 0 -4 11 -19 24 -33 13 -14 46 -54 72 -89 27 -35 54 -70 61 -78 7
-8 26 -33 43 -55 17 -22 41 -53 55 -70 13 -16 105 -133 204 -260 l180 -230
325 -1 c179 0 326 2 327 5 0 3 2 1012 4 2241 2 1229 5 2253 9 2274 21 145 54
232 114 295 46 48 73 65 137 86 51 18 56 19 140 30 28 3 59 8 70 10 11 2 32 4
47 4 l26 1 0 250 c0 138 -3 251 -6 251 -4 1 -397 2 -874 3 -767 1 -867 0 -870
-14 -3 -13 -2 -535 1 -566 1 -7 14 -10 34 -8 17 2 120 6 227 8 107 3 195 5
195 6 0 1 26 3 57 4 l58 3 -7 -136 c-4 -75 -8 -743 -10 -1486 -2 -742 -4
-1386 -6 -1429 l-2 -79 -67 94 c-36 52 -90 126 -120 165 -29 40 -60 82 -68 94
-52 77 -308 413 -443 580 -7 8 -46 58 -87 110 -41 52 -80 102 -87 110 -7 8
-78 98 -159 200 -80 102 -150 187 -155 188 -5 2 -9 8 -9 12 0 10 -160 213
-172 218 -5 2 -8 10 -8 18 0 8 -4 14 -8 14 -5 0 -21 18 -38 40 -16 22 -39 53
-52 68 -13 15 -37 46 -54 70 -17 23 -35 42 -40 42 -4 0 -8 4 -8 10 0 9 -15 29
-45 64 -6 6 -26 31 -45 56 -19 25 -39 50 -45 56 -5 6 -19 23 -30 38 -11 16
-25 33 -30 40 -6 6 -26 31 -45 56 -19 25 -42 54 -52 65 -9 11 -89 112 -179
225 -89 113 -189 239 -223 281 -34 42 -68 87 -76 99 -8 12 -25 33 -37 46 -12
13 -34 41 -50 61 -15 21 -30 40 -33 43 -8 7 -52 62 -80 100 -52 68 -283 359
-327 410 l-21 25 -601 0 -601 0 0 -85z"/>
</g>
</svg>
